<svg xmlns="http://www.w3.org/2000/svg" viewBox="0 0 128 128" fill="none">
  <defs>
    <linearGradient id="blue" x1="22" y1="18" x2="102" y2="112" gradientUnits="userSpaceOnUse">
      <stop stop-color="#4B86F7"/>
      <stop offset="1" stop-color="#2F6FF0"/>
    </linearGradient>
    <linearGradient id="belly" x1="26" y1="71" x2="94" y2="92" gradientUnits="userSpaceOnUse">
      <stop stop-color="#EEF5FF"/>
      <stop offset="1" stop-color="#DCEBFF"/>
    </linearGradient>
  </defs>
  <path d="M33 107C20 101 12 89 12 75c0-4 1-8 2-12 7 20 27 33 53 36 26 3 45-8 52-29 5 17 1 33-11 44L95 127l-16-14c-17 3-33 1-46-6Z" fill="url(#blue)"/>
  <path d="M6 62C7 31 34 8 67 8c26 0 42 12 52 34 4 9 11 15 19 16 9 1 17-5 20-15 3 13-2 27-13 35-12 9-28 9-40-1-13 14-34 21-59 17C25 90 10 78 6 62Z" fill="url(#blue)"/>
  <path d="M126 33c13-2 24 1 32 8-2 14-10 25-22 30-8-5-13-14-10-38Z" fill="url(#blue)" transform="translate(-45 -1)"/>
  <path d="M103 34c-13-2-24 1-32 8 2 14 10 25 22 30 8-5 13-14 10-38Z" fill="url(#blue)" transform="translate(25 -1)"/>
  <path d="M9 68c29-14 51-7 74 4 18 9 34 10 48 4-17 17-39 25-66 23C38 97 18 87 9 68Z" fill="white"/>
  <path d="M15 70c26-10 48-3 70 8 8 4 17 7 28 7-18 7-39 7-62 0-17-5-29-10-36-15Z" fill="url(#belly)"/>
  <circle cx="53" cy="45" r="5" fill="white"/>
  <path d="M35 100c14-9 44-10 74 0" stroke="white" stroke-width="6" stroke-linecap="round"/>
  <path d="M36 100c14-8 43-9 73 0" stroke="url(#blue)" stroke-width="4" stroke-linecap="round"/>
  <circle cx="32" cy="100" r="8" fill="white"/>
  <circle cx="32" cy="100" r="5" fill="url(#blue)"/>
  <circle cx="64" cy="96" r="10" fill="white"/>
  <circle cx="64" cy="96" r="6" fill="url(#blue)"/>
  <circle cx="98" cy="100" r="8" fill="white"/>
  <circle cx="98" cy="100" r="5" fill="url(#blue)"/>
</svg>
