<svg xmlns="http://www.w3.org/2000/svg" viewBox="0 0 720 150" fill="none">
  <defs>
    <linearGradient id="wash" x1="0" y1="0" x2="720" y2="150" gradientUnits="userSpaceOnUse">
      <stop stop-color="#F2EEFF"/>
      <stop offset=".55" stop-color="#F3F0FF"/>
      <stop offset="1" stop-color="#E9F2FF"/>
    </linearGradient>
    <linearGradient id="planeFill" x1="278" y1="24" x2="405" y2="118" gradientUnits="userSpaceOnUse">
      <stop stop-color="#FFFFFF" stop-opacity=".96"/>
      <stop offset=".5" stop-color="#F3F1FF" stop-opacity=".82"/>
      <stop offset="1" stop-color="#BAB7FF" stop-opacity=".35"/>
    </linearGradient>
    <linearGradient id="purple" x1="0" y1="0" x2="1" y2="1">
      <stop stop-color="#6E66EA"/>
      <stop offset="1" stop-color="#8B84F2"/>
    </linearGradient>
    <filter id="paperShadow" x="310" y="0" width="230" height="150" filterUnits="userSpaceOnUse">
      <feDropShadow dx="0" dy="16" stdDeviation="10" flood-color="#6E66EA" flood-opacity=".16"/>
    </filter>
  </defs>

  <rect width="720" height="150" rx="22" fill="url(#wash)"/>
  <path d="M0 119c54-10 103-11 148-2 54 10 97 1 142-13 49-15 104-16 167-2 55 12 105 7 151-12 42-18 79-20 112-8v68H0v-31Z" fill="#A6A1F4" opacity=".10"/>
  <path d="M28 22c40-11 91-12 153-2 50 8 90 6 119-6" stroke="#fff" stroke-width="28" stroke-linecap="round" opacity=".18"/>
  <path d="M206 127c22-1 39-7 51-19 13-14 24-25 44-26" stroke="#6F68E8" stroke-width="3.2" stroke-linecap="round" stroke-dasharray="11 10" opacity=".64"/>
  <path d="M250 92c-17 6-28 16-33 30" stroke="#6F68E8" stroke-width="3" stroke-linecap="round" stroke-dasharray="8 9" opacity=".58"/>

  <g filter="url(#paperShadow)">
    <path d="M350 54 503 18 432 120 404 83 350 54Z" fill="url(#planeFill)"/>
    <path d="M350 54 503 18 432 120 404 83 350 54Z" stroke="url(#purple)" stroke-width="4.2" stroke-linejoin="round"/>
    <path d="M404 83 503 18 377 66" stroke="#6C64E8" stroke-width="3.8" stroke-linecap="round" stroke-linejoin="round"/>
    <path d="M404 83 391 116 432 120" stroke="#817AF0" stroke-width="3.5" stroke-linejoin="round" opacity=".82"/>
    <path d="M377 66 432 120" stroke="#817AF0" stroke-width="3.2" stroke-linecap="round" opacity=".48"/>
  </g>

  <path d="M456 124h34V91h27v33h17V74h48v50h18V99h52v25h27V82h32v42h19v26H456v-26Z" fill="#8984EE" opacity=".18"/>
  <path d="M548 73 574 49l27 24v51h-53V73Z" fill="#8984EE" opacity=".24"/>
  <path d="M560 72h28M558 84h32M565 98h7M581 98h7M565 111h7M581 111h7" stroke="#7771E9" stroke-width="2.2" stroke-linecap="round" opacity=".30"/>
  <path d="M574 49V31M564 31h20" stroke="#7771E9" stroke-width="2.2" stroke-linecap="round" opacity=".34"/>
  <path d="M474 124c5-18 15-27 31-27 15 0 25 9 30 27" stroke="#8984EE" stroke-width="7" stroke-linecap="round" opacity=".18"/>
  <path d="M635 124c4-15 13-22 27-22 13 0 21 7 25 22" stroke="#8984EE" stroke-width="7" stroke-linecap="round" opacity=".16"/>
  <circle cx="512" cy="104" r="32" fill="#8984EE" opacity=".12"/>
  <circle cx="665" cy="103" r="26" fill="#8984EE" opacity=".13"/>

  <path d="M456 21 508 10l-25 34-10-14-17-9Z" fill="#9690F1" opacity=".22"/>
  <path d="M609 24 651 16l-20 28-8-12-14-8Z" fill="#9690F1" opacity=".18"/>
  <path d="M493 50c29-12 57-15 85-8" stroke="#9690F1" stroke-width="4" stroke-linecap="round" stroke-dasharray="8 13" opacity=".16"/>
</svg>
